<svg width="36" height="36" viewBox="0 0 36 36" fill="none" xmlns="http://www.w3.org/2000/svg">
<path d="M18 33C26.2843 33 33 26.2843 33 18C33 9.71573 26.2843 3 18 3C9.71573 3 3 9.71573 3 18C3 26.2843 9.71573 33 18 33Z" fill="#647ACB"/>
<path d="M16.5 21.885V10.5C16.5 10.1022 16.658 9.72064 16.9393 9.43934C17.2206 9.15804 17.6022 9 18 9C18.3978 9 18.7793 9.15804 19.0606 9.43934C19.342 9.72064 19.5 10.1022 19.5 10.5V21.885L22.95 18.435C23.0856 18.279 23.252 18.1527 23.4387 18.0641C23.6254 17.9754 23.8284 17.9263 24.035 17.9198C24.2416 17.9134 24.4473 17.9497 24.6392 18.0264C24.8311 18.1032 25.0051 18.2188 25.1502 18.366C25.2953 18.5132 25.4084 18.6888 25.4825 18.8817C25.5565 19.0747 25.5899 19.2809 25.5805 19.4874C25.5711 19.6939 25.5191 19.8962 25.4278 20.0816C25.3365 20.267 25.2079 20.4316 25.05 20.565L19.05 26.565C18.7696 26.8398 18.3926 26.9938 18 26.9938C17.6074 26.9938 17.2304 26.8398 16.95 26.565L10.95 20.565C10.7021 20.2798 10.5709 19.9116 10.5828 19.5339C10.5946 19.1562 10.7486 18.7969 11.0139 18.5278C11.2792 18.2587 11.6363 18.0996 12.0138 18.0824C12.3912 18.0652 12.7613 18.1912 13.05 18.435L16.5 21.885Z" fill="#E0E8F9"/>
</svg>
