<svg width="36" height="36" viewBox="0 0 36 36" fill="none" xmlns="http://www.w3.org/2000/svg">
<path d="M18 19.5C18 18.3065 18.4741 17.1619 19.318 16.318C20.1619 15.4741 21.3065 15 22.5 15H28.5C29.6935 15 30.8381 15.4741 31.682 16.318C32.5259 17.1619 33 18.3065 33 19.5V24C33 24.3978 32.842 24.7794 32.5607 25.0607C32.2794 25.342 31.8978 25.5 31.5 25.5H19.5C19.1022 25.5 18.7206 25.342 18.4393 25.0607C18.158 24.7794 18 24.3978 18 24C18 24.3978 17.842 24.7794 17.5607 25.0607C17.2794 25.342 16.8978 25.5 16.5 25.5H4.5C4.10218 25.5 3.72064 25.342 3.43934 25.0607C3.15804 24.7794 3 24.3978 3 24V19.5C3 18.3065 3.47411 17.1619 4.31802 16.318C5.16193 15.4741 6.30653 15 7.5 15H13.5C14.6935 15 15.8381 15.4741 16.682 16.318C17.5259 17.1619 18 18.3065 18 19.5ZM10.5 13.5C9.30653 13.5 8.16193 13.0259 7.31802 12.182C6.47411 11.3381 6 10.1935 6 9C6 7.80653 6.47411 6.66193 7.31802 5.81802C8.16193 4.97411 9.30653 4.5 10.5 4.5C11.6935 4.5 12.8381 4.97411 13.682 5.81802C14.5259 6.66193 15 7.80653 15 9C15 10.1935 14.5259 11.3381 13.682 12.182C12.8381 13.0259 11.6935 13.5 10.5 13.5ZM25.5 13.5C24.3065 13.5 23.1619 13.0259 22.318 12.182C21.4741 11.3381 21 10.1935 21 9C21 7.80653 21.4741 6.66193 22.318 5.81802C23.1619 4.97411 24.3065 4.5 25.5 4.5C26.6935 4.5 27.8381 4.97411 28.682 5.81802C29.5259 6.66193 30 7.80653 30 9C30 10.1935 29.5259 11.3381 28.682 12.182C27.8381 13.0259 26.6935 13.5 25.5 13.5Z" fill="#BED0F7"/>
<path d="M18 19.5C16.8065 19.5 15.6619 19.0259 14.818 18.182C13.9741 17.3381 13.5 16.1935 13.5 15C13.5 13.8065 13.9741 12.6619 14.818 11.818C15.6619 10.9741 16.8065 10.5 18 10.5C19.1935 10.5 20.3381 10.9741 21.182 11.818C22.0259 12.6619 22.5 13.8065 22.5 15C22.5 16.1935 22.0259 17.3381 21.182 18.182C20.3381 19.0259 19.1935 19.5 18 19.5ZM13.5 21H22.5C23.6935 21 24.8381 21.4741 25.682 22.318C26.5259 23.1619 27 24.3065 27 25.5V30C27 30.3978 26.842 30.7794 26.5607 31.0607C26.2794 31.342 25.8978 31.5 25.5 31.5H10.5C10.1022 31.5 9.72064 31.342 9.43934 31.0607C9.15804 30.7794 9 30.3978 9 30V25.5C9 24.3065 9.47411 23.1619 10.318 22.318C11.1619 21.4741 12.3065 21 13.5 21Z" fill="#647ACB"/>
</svg>
