<svg width="32" height="32" viewBox="0 0 32 32" fill="none" xmlns="http://www.w3.org/2000/svg">
<path d="M16 29.3333C18.2091 29.3333 20 27.5425 20 25.3333C20 23.1242 18.2091 21.3333 16 21.3333C13.7909 21.3333 12 23.1242 12 25.3333C12 27.5425 13.7909 29.3333 16 29.3333Z" fill="#BED0F7"/>
<path d="M13.36 5.70667L13.3333 5.33334C13.3329 4.96714 13.408 4.60479 13.5538 4.26886C13.6996 3.93294 13.913 3.63064 14.1807 3.38081C14.4485 3.13098 14.7648 2.93897 15.11 2.81674C15.4552 2.69452 15.8218 2.64471 16.1871 2.67041C16.5524 2.69611 16.9085 2.79677 17.2332 2.96612C17.5579 3.13547 17.8442 3.36987 18.0743 3.65473C18.3045 3.93959 18.4735 4.26879 18.5708 4.62182C18.6681 4.97485 18.6917 5.34413 18.64 5.70667C20.5737 6.27692 22.2708 7.45797 23.4773 9.0731C24.6839 10.6882 25.335 12.6506 25.3333 14.6667V21.3333C25.3333 21.687 25.4738 22.0261 25.7239 22.2761C25.9739 22.5262 26.313 22.6667 26.6667 22.6667C27.0203 22.6667 27.3594 22.8071 27.6095 23.0572C27.8595 23.3072 28 23.6464 28 24C28 24.3536 27.8595 24.6928 27.6095 24.9428C27.3594 25.1929 27.0203 25.3333 26.6667 25.3333H5.33333C4.97971 25.3333 4.64057 25.1929 4.39052 24.9428C4.14048 24.6928 4 24.3536 4 24C4 23.6464 4.14048 23.3072 4.39052 23.0572C4.64057 22.8071 4.97971 22.6667 5.33333 22.6667C5.68696 22.6667 6.02609 22.5262 6.27614 22.2761C6.52619 22.0261 6.66667 21.687 6.66667 21.3333V14.6667C6.66498 12.6506 7.31612 10.6882 8.52266 9.0731C9.72921 7.45797 11.4263 6.27692 13.36 5.70667Z" fill="#98AEEB"/>
</svg>
