<svg width="36" height="36" viewBox="0 0 36 36" fill="none" xmlns="http://www.w3.org/2000/svg">
<path d="M16.5 9.585L9.48001 11.925C9.16865 12.0302 8.83137 12.0302 8.52001 11.925L4.02001 10.425C3.64208 10.2977 3.33019 10.0255 3.15297 9.66822C2.97575 9.31096 2.94771 8.89793 3.07501 8.52C3.20231 8.14207 3.47454 7.83018 3.83179 7.65296C4.18905 7.47574 4.60208 7.4477 4.98001 7.575L9.00001 8.925L16.5 6.42V4.5C16.5 4.10218 16.658 3.72064 16.9393 3.43934C17.2207 3.15804 17.6022 3 18 3C18.3978 3 18.7794 3.15804 19.0607 3.43934C19.342 3.72064 19.5 4.10218 19.5 4.5V6.42L27 8.925L31.02 7.575C31.3979 7.4477 31.811 7.47574 32.1682 7.65296C32.5255 7.83018 32.7977 8.14207 32.925 8.52C33.0523 8.89793 33.0243 9.31096 32.847 9.66822C32.6698 10.0255 32.3579 10.2977 31.98 10.425L27.48 11.925C27.1686 12.0302 26.8314 12.0302 26.52 11.925L19.5 9.585V27C19.5 28.65 20.85 30 22.5 30H24V33H12V30H13.5C14.2957 30 15.0587 29.6839 15.6213 29.1213C16.1839 28.5587 16.5 27.7956 16.5 27V9.585Z" fill="#BED0F7"/>
<path d="M25.575 10.02C25.6737 9.7199 25.8645 9.45859 26.1204 9.27335C26.3763 9.0881 26.6841 8.98837 27 8.98837C27.3159 8.98837 27.6237 9.0881 27.8796 9.27335C28.1355 9.45859 28.3264 9.7199 28.425 10.02L32.925 23.52C33.0288 23.8335 33.0263 24.1724 32.9178 24.4843C32.8093 24.7962 32.601 25.0636 32.325 25.245C30.7659 26.3502 28.9107 26.9616 27 27C25.2 27 23.4 26.4 21.675 25.245C21.3991 25.0636 21.1907 24.7962 21.0822 24.4843C20.9737 24.1724 20.9712 23.8335 21.075 23.52L25.575 10.02ZM29.415 22.5L27 15.24L24.585 22.5H29.415ZM7.57501 10.02C7.67365 9.7199 7.86452 9.45859 8.1204 9.27335C8.37628 9.0881 8.68412 8.98837 9.00001 8.98837C9.31591 8.98837 9.62374 9.0881 9.87963 9.27335C10.1355 9.45859 10.3264 9.7199 10.425 10.02L14.925 23.52C15.0288 23.8335 15.0263 24.1724 14.9178 24.4843C14.8093 24.7962 14.601 25.0636 14.325 25.245C12.7659 26.3502 10.9107 26.9616 9.00001 27C7.20001 27 5.40001 26.4 3.67501 25.245C3.39907 25.0636 3.1907 24.7962 3.08222 24.4843C2.97373 24.1724 2.9712 23.8335 3.07501 23.52L7.57501 10.02ZM11.415 22.5L9.00001 15.24L6.58501 22.5H11.4H11.415Z" fill="#647ACB"/>
</svg>
