<svg width="36" height="36" viewBox="0 0 36 36" fill="none" xmlns="http://www.w3.org/2000/svg">
<path d="M18 33C14.0218 33 10.2064 31.4196 7.3934 28.6066C4.58035 25.7936 3 21.9782 3 18C3 14.0218 4.58035 10.2064 7.3934 7.3934C10.2064 4.58035 14.0218 3 18 3C21.9782 3 25.7936 4.58035 28.6066 7.3934C31.4196 10.2064 33 14.0218 33 18C33 21.9782 31.4196 25.7936 28.6066 28.6066C25.7936 31.4196 21.9782 33 18 33ZM18 21C18.7956 21 19.5587 20.6839 20.1213 20.1213C20.6839 19.5587 21 18.7956 21 18C21 17.2044 20.6839 16.4413 20.1213 15.8787C19.5587 15.3161 18.7956 15 18 15C17.2044 15 16.4413 15.3161 15.8787 15.8787C15.3161 16.4413 15 17.2044 15 18C15 18.7956 15.3161 19.5587 15.8787 20.1213C16.4413 20.6839 17.2044 21 18 21Z" fill="#BED0F7"/>
<path d="M20.565 19.545C20.9167 18.9705 21.0649 18.2943 20.9856 17.6253C20.9062 16.9564 20.6041 16.3336 20.1278 15.8573C19.6514 15.3809 19.0286 15.0788 18.3597 14.9994C17.6907 14.9201 17.0145 15.0683 16.44 15.42L24.525 9.375C25.905 8.325 27.675 10.095 26.625 11.475L20.565 19.545ZM19.545 20.565L11.475 26.625C10.095 27.675 8.32501 25.905 9.37501 24.525L15.435 16.455C15.0833 17.0295 14.9351 17.7057 15.0145 18.3747C15.0938 19.0436 15.3959 19.6664 15.8723 20.1427C16.3486 20.6191 16.9714 20.9212 17.6404 21.0006C18.3093 21.0799 18.9855 20.9317 19.56 20.58L19.545 20.565Z" fill="#647ACB"/>
</svg>
