<svg width="36" height="36" viewBox="0 0 36 36" fill="none" xmlns="http://www.w3.org/2000/svg">
<path d="M3 7.5C3 9.15 4.35 10.5 6 10.5H30C30.7956 10.5 31.5587 10.8161 32.1213 11.3787C32.6839 11.9413 33 12.7044 33 13.5V28.5C33 29.2956 32.6839 30.0587 32.1213 30.6213C31.5587 31.1839 30.7956 31.5 30 31.5H6C5.20435 31.5 4.44129 31.1839 3.87868 30.6213C3.31607 30.0587 3 29.2956 3 28.5V7.5ZM27 24C27.7956 24 28.5587 23.6839 29.1213 23.1213C29.6839 22.5587 30 21.7956 30 21C30 20.2044 29.6839 19.4413 29.1213 18.8787C28.5587 18.3161 27.7956 18 27 18C26.2044 18 25.4413 18.3161 24.8787 18.8787C24.3161 19.4413 24 20.2044 24 21C24 21.7956 24.3161 22.5587 24.8787 23.1213C25.4413 23.6839 26.2044 24 27 24Z" fill="#BED0F7"/>
<path d="M6 4.5H22.5C23.2956 4.5 24.0587 4.81607 24.6213 5.37868C25.1839 5.94129 25.5 6.70435 25.5 7.5V10.5H6C5.20435 10.5 4.44129 10.1839 3.87868 9.62132C3.31607 9.05871 3 8.29565 3 7.5C3 6.70435 3.31607 5.94129 3.87868 5.37868C4.44129 4.81607 5.20435 4.5 6 4.5Z" fill="#647ACB"/>
</svg>
