<svg width="36" height="36" viewBox="0 0 36 36" fill="none" xmlns="http://www.w3.org/2000/svg">
<path d="M18 33C26.2843 33 33 26.2843 33 18C33 9.71573 26.2843 3 18 3C9.71573 3 3 9.71573 3 18C3 26.2843 9.71573 33 18 33Z" fill="#647ACB"/>
<path d="M21.885 19.5H10.5C10.1022 19.5 9.72064 19.342 9.43934 19.0607C9.15804 18.7794 9 18.3978 9 18C9 17.6022 9.15804 17.2206 9.43934 16.9393C9.72064 16.658 10.1022 16.5 10.5 16.5H21.885L18.435 13.05C18.279 12.9144 18.1527 12.748 18.0641 12.5613C17.9754 12.3746 17.9263 12.1716 17.9198 11.965C17.9134 11.7584 17.9497 11.5527 18.0264 11.3608C18.1032 11.1689 18.2188 10.9949 18.366 10.8498C18.5132 10.7047 18.6888 10.5916 18.8817 10.5175C19.0747 10.4435 19.2809 10.4101 19.4874 10.4195C19.6939 10.4289 19.8962 10.4809 20.0816 10.5722C20.267 10.6635 20.4316 10.7921 20.565 10.95L26.565 16.95C26.8398 17.2304 26.9938 17.6074 26.9938 18C26.9938 18.3926 26.8398 18.7696 26.565 19.05L20.565 25.05C20.2798 25.2979 19.9116 25.4291 19.5339 25.4172C19.1562 25.4054 18.7969 25.2514 18.5278 24.9861C18.2587 24.7208 18.0996 24.3637 18.0824 23.9862C18.0652 23.6087 18.1912 23.2387 18.435 22.95L21.885 19.5Z" fill="#E0E8F9"/>
</svg>
