<svg width="24" height="24" viewBox="0 0 24 24" fill="none" xmlns="http://www.w3.org/2000/svg">
<g clip-path="url(#clip0)">
<path opacity="0.2" d="M13.2747 3.07742C13.9787 2.37342 13.9787 1.23202 13.2747 0.528019C12.5707 -0.175981 11.4293 -0.175981 10.7253 0.528019L0.528122 10.7254C-0.175878 11.4294 -0.175878 12.5708 0.528122 13.2746L5.62672 18.3732V18.3734C6.33072 19.0774 7.47192 19.0774 8.17592 18.3734L17.0987 9.45062L19.6481 12L10.7253 20.9228C10.0213 21.6266 10.0213 22.768 10.7253 23.4722C11.4293 24.176 12.5707 24.176 13.2747 23.4722L23.4719 13.2746C24.1759 12.5708 24.1759 11.4294 23.4719 10.7254L18.3733 5.62662C17.6693 4.92282 16.5281 4.92282 15.8241 5.62662L6.90132 14.5494L4.35192 12L13.2747 3.07742Z" fill="url(#paint0_linear)"/>
<path d="M13.2748 20.9227C13.9788 21.6267 13.9788 22.7681 13.2748 23.4721C12.5708 24.1761 11.4294 24.1761 10.7254 23.4721C10.0214 22.7681 10.0214 21.6267 10.7254 20.9227C11.4294 20.2187 12.5708 20.2187 13.2748 20.9227ZM8.17604 15.8241C8.88004 16.5281 8.88004 17.6695 8.17604 18.3735C7.47204 19.0775 6.33064 19.0775 5.62664 18.3735C4.92264 17.6695 4.92264 16.5281 5.62664 15.8241C6.33064 15.1201 7.47204 15.1201 8.17604 15.8241ZM18.3734 15.8241C19.0774 16.5281 19.0774 17.6695 18.3734 18.3733C17.6694 19.0775 16.528 19.0775 15.824 18.3735C15.12 17.6695 15.12 16.5281 15.824 15.8241C16.528 15.1201 17.6694 15.1201 18.3734 15.8241ZM3.0774 10.7255C3.7814 11.4295 3.7814 12.5709 3.0774 13.2747C2.3734 13.9789 1.232 13.9789 0.528 13.2747C-0.176 12.5709 -0.176 11.4295 0.528 10.7255C1.232 10.0213 2.3734 10.0213 3.0774 10.7255ZM13.2748 10.7255C13.9788 11.4295 13.9788 12.5709 13.2748 13.2747C12.5708 13.9789 11.4294 13.9789 10.7254 13.2747C10.0214 12.5709 10.0214 11.4295 10.7254 10.7255C11.4294 10.0213 12.5708 10.0213 13.2748 10.7255ZM23.472 10.7255C24.176 11.4295 24.176 12.5709 23.472 13.2747C22.768 13.9789 21.6266 13.9789 20.9226 13.2747C20.2186 12.5709 20.2186 11.4295 20.9226 10.7255C21.6266 10.0213 22.768 10.0213 23.472 10.7255ZM8.17604 5.62664C8.88004 6.33084 8.88004 7.47224 8.17604 8.17604C7.47204 8.88004 6.33064 8.88004 5.62664 8.17604C4.92264 7.47224 4.92264 6.33084 5.62664 5.62684C6.33064 4.92264 7.47204 4.92264 8.17604 5.62664ZM18.3734 5.62664C19.0774 6.33084 19.0774 7.47224 18.3734 8.17604C17.6694 8.88004 16.528 8.88004 15.824 8.17604C15.12 7.47224 15.12 6.33084 15.824 5.62684C16.528 4.92264 17.6694 4.92264 18.3734 5.62664ZM13.2748 0.528C13.9788 1.2322 13.9788 2.3736 13.2748 3.0774C12.5708 3.7814 11.4294 3.7814 10.7254 3.0774C10.0214 2.3736 10.0214 1.2322 10.7254 0.528C11.4294 -0.176 12.5708 -0.176 13.2748 0.528Z" fill="url(#paint1_linear)"/>
</g>
<defs>
<linearGradient id="paint0_linear" x1="23.9997" y1="24.0001" x2="0.000121352" y2="0.000271557" gradientUnits="userSpaceOnUse">
<stop stop-color="#FE3876"/>
<stop offset="0.714448" stop-color="#7C30DD"/>
<stop offset="1" stop-color="#3A30DD"/>
</linearGradient>
<linearGradient id="paint1_linear" x1="24.0001" y1="24.0001" x2="-0.000197411" y2="9.72762e-05" gradientUnits="userSpaceOnUse">
<stop stop-color="#FE3876"/>
<stop offset="0.714448" stop-color="#7C30DD"/>
<stop offset="1" stop-color="#3A30DD"/>
</linearGradient>
<clipPath id="clip0">
<rect width="24" height="24" fill="white"/>
</clipPath>
</defs>
</svg>
