<svg width="36" height="36" viewBox="0 0 36 36" fill="none" xmlns="http://www.w3.org/2000/svg">
<path d="M18 33C26.2843 33 33 26.2843 33 18C33 9.71573 26.2843 3 18 3C9.71573 3 3 9.71573 3 18C3 26.2843 9.71573 33 18 33Z" fill="#647ACB"/>
<path d="M19.5 14.115V25.5C19.5 25.8978 19.342 26.2794 19.0607 26.5607C18.7794 26.842 18.3978 27 18 27C17.6022 27 17.2207 26.842 16.9394 26.5607C16.6581 26.2794 16.5 25.8978 16.5 25.5V14.115L13.05 17.565C12.9144 17.721 12.748 17.8473 12.5613 17.9359C12.3746 18.0246 12.1716 18.0737 11.965 18.0802C11.7584 18.0866 11.5527 18.0503 11.3608 17.9736C11.1689 17.8968 10.9949 17.7812 10.8498 17.634C10.7047 17.4868 10.5916 17.3112 10.5175 17.1183C10.4435 16.9253 10.4101 16.7191 10.4195 16.5126C10.4289 16.3061 10.4809 16.1038 10.5722 15.9184C10.6635 15.733 10.7921 15.5684 10.95 15.435L16.95 9.435C17.2304 9.16016 17.6074 9.00621 18 9.00621C18.3926 9.00621 18.7696 9.16016 19.05 9.435L25.05 15.435C25.2979 15.7202 25.4291 16.0884 25.4172 16.4661C25.4054 16.8438 25.2514 17.2031 24.9861 17.4722C24.7208 17.7413 24.3637 17.9004 23.9862 17.9176C23.6088 17.9348 23.2387 17.8088 22.95 17.565L19.5 14.1V14.115Z" fill="#E0E8F9"/>
</svg>
